<svg width="346" height="219" viewBox="0 0 346 219" fill="none" xmlns="http://www.w3.org/2000/svg">
<rect x="105" y="54" width="136" height="27" fill="#F08888"/>
<rect x="186" width="136" height="27" transform="rotate(90 186 0)" fill="#F08888"/>
<path d="M47.1529 199V177.83C47.1529 175.317 46.5729 173.538 45.4129 172.494C44.2916 171.411 42.3969 170.87 39.7289 170.87C37.7956 170.87 35.9396 171.141 34.1609 171.682C32.4209 172.185 30.7582 172.9 29.1729 173.828V169.014C30.2942 168.434 31.8022 167.893 33.6969 167.39C35.6302 166.887 37.7956 166.636 40.1929 166.636C42.2422 166.636 43.9822 166.868 45.4129 167.332C46.8822 167.796 47.9649 168.647 48.6609 169.884C50.0142 170.503 50.9422 171.469 51.4449 172.784C51.9862 174.099 52.2569 175.684 52.2569 177.54V199H47.1529ZM37.1769 199.58C33.7742 199.58 31.1642 198.807 29.3469 197.26C27.5682 195.675 26.6789 193.413 26.6789 190.474C26.6789 187.265 27.8389 184.79 30.1589 183.05C32.5176 181.31 36.3262 180.285 41.5849 179.976L48.1969 179.57V183.862L42.2809 184.268C38.3369 184.539 35.6109 185.157 34.1029 186.124C32.6336 187.091 31.8989 188.502 31.8989 190.358C31.8989 192.098 32.4402 193.374 33.5229 194.186C34.6442 194.998 36.1909 195.404 38.1629 195.404C38.8202 195.404 39.4196 195.365 39.9609 195.288C40.5022 195.172 41.0242 195.037 41.5269 194.882L42.3389 198.768C41.6042 199.039 40.7922 199.232 39.9029 199.348C39.0522 199.503 38.1436 199.58 37.1769 199.58ZM48.4869 171.682L45.5869 168.956C46.5922 168.801 47.5396 168.415 48.4289 167.796C49.3182 167.177 49.7629 166.288 49.7629 165.128H54.8089C54.8089 166.327 54.5189 167.39 53.9389 168.318C53.3976 169.207 52.6436 169.942 51.6769 170.522C50.7102 171.063 49.6469 171.45 48.4869 171.682ZM70.6583 199.58C68.377 199.58 66.2503 199.367 64.2783 198.942C62.345 198.478 60.7017 197.937 59.3483 197.318L60.8563 193.142C61.6683 193.451 62.5963 193.78 63.6403 194.128C64.6843 194.476 65.8057 194.766 67.0043 194.998C68.2417 195.191 69.4983 195.288 70.7743 195.288C72.8237 195.288 74.525 194.901 75.8783 194.128C77.2317 193.355 77.9083 192.233 77.9083 190.764C77.9083 189.875 77.657 189.121 77.1543 188.502C76.6903 187.845 75.9557 187.245 74.9503 186.704C73.945 186.163 72.6497 185.641 71.0643 185.138C68.6283 184.365 66.5597 183.553 64.8583 182.702C63.1957 181.813 61.9197 180.769 61.0303 179.57C60.1797 178.333 59.7543 176.805 59.7543 174.988C59.7543 173.364 60.1797 171.933 61.0303 170.696C61.9197 169.42 63.273 168.434 65.0903 167.738C66.9463 167.003 69.305 166.636 72.1663 166.636C74.0223 166.636 75.7623 166.81 77.3863 167.158C79.049 167.467 80.3443 167.912 81.2723 168.492V172.842C80.615 172.533 79.7837 172.223 78.7783 171.914C77.8117 171.605 76.7483 171.353 75.5883 171.16C74.4283 170.967 73.2297 170.87 71.9923 170.87C69.4017 170.87 67.565 171.276 66.4823 172.088C65.4383 172.861 64.9163 173.751 64.9163 174.756C64.9163 175.607 65.1483 176.322 65.6123 176.902C66.115 177.482 66.9463 178.043 68.1063 178.584C69.305 179.125 70.9097 179.744 72.9203 180.44C74.7763 181.059 76.4777 181.774 78.0243 182.586C79.571 183.398 80.789 184.423 81.6783 185.66C82.6063 186.859 83.0703 188.405 83.0703 190.3C83.0703 191.924 82.6643 193.451 81.8523 194.882C81.079 196.274 79.7837 197.415 77.9663 198.304C76.149 199.155 73.713 199.58 70.6583 199.58ZM66.8367 162.17V159.618C67.61 159.463 68.4027 159.251 69.2147 158.98C70.0267 158.671 70.7033 158.284 71.2447 157.82C71.786 157.317 72.0567 156.718 72.0567 156.022C72.0567 155.558 71.9213 155.171 71.6507 154.862C71.3413 154.514 70.8773 154.34 70.2587 154.34C69.872 154.34 69.4853 154.417 69.0987 154.572C68.6733 154.727 68.306 154.862 67.9967 154.978L66.8367 151.788C67.61 151.169 68.48 150.763 69.4467 150.57C70.3747 150.377 71.1287 150.28 71.7087 150.28C73.2553 150.28 74.4733 150.705 75.3627 151.556C76.2133 152.407 76.6387 153.489 76.6387 154.804C76.6387 155.887 76.368 156.834 75.8267 157.646C75.2467 158.419 74.5893 159.038 73.8547 159.502L73.2747 158.11H84.8167V162.17H66.8367ZM99.0366 199V176.438C99.0366 174.543 98.592 173.151 97.7026 172.262C96.852 171.373 95.402 170.928 93.3526 170.928C91.9606 170.928 90.646 171.121 89.4086 171.508C88.21 171.856 87.05 172.359 85.9286 173.016V168.376C86.702 167.989 87.804 167.603 89.2346 167.216C90.6653 166.829 92.3666 166.636 94.3386 166.636C96.3493 166.636 98.0893 166.926 99.5586 167.506C101.028 168.086 102.169 169.053 102.981 170.406C103.793 171.721 104.199 173.48 104.199 175.684V199H99.0366ZM118.829 199L108.911 167.216H114.131L122.715 194.534H123.411C124.339 194.534 125.248 194.321 126.137 193.896C127.026 193.432 127.78 192.852 128.399 192.156C129.559 190.88 130.41 189.275 130.951 187.342C131.492 185.37 131.763 183.437 131.763 181.542C131.763 178.333 131.028 175.819 129.559 174.002C128.128 172.146 126.137 171.218 123.585 171.218C123.082 171.218 122.58 171.257 122.077 171.334C121.613 171.411 121.226 171.508 120.917 171.624L119.641 167.506C120.453 167.274 121.207 167.119 121.903 167.042C122.638 166.965 123.295 166.926 123.875 166.926C125.808 166.926 127.529 167.216 129.037 167.796C130.584 168.337 131.898 169.149 132.981 170.232C134.334 171.547 135.32 173.19 135.939 175.162C136.596 177.134 136.925 179.319 136.925 181.716C136.925 184.732 136.461 187.419 135.533 189.778C134.605 192.098 133.445 193.954 132.053 195.346C130.932 196.467 129.559 197.357 127.935 198.014C126.311 198.671 124.242 199 121.729 199H118.829ZM156.013 199.58C152.765 199.58 150.252 198.845 148.473 197.376C146.695 195.868 145.457 193.838 144.761 191.286C144.065 188.695 143.717 185.757 143.717 182.47C143.717 178.681 144.065 175.626 144.761 173.306C145.496 170.986 146.559 169.304 147.951 168.26C149.343 167.177 151.045 166.636 153.055 166.636C154.409 166.636 155.549 166.868 156.477 167.332C157.444 167.796 158.121 168.569 158.507 169.652H158.739C159.126 168.531 159.822 167.757 160.827 167.332C161.833 166.868 163.012 166.636 164.365 166.636C166.879 166.636 168.812 167.313 170.165 168.666C171.557 169.981 172.253 172.011 172.253 174.756V199H167.091V174.814C167.091 173.306 166.763 172.281 166.105 171.74C165.448 171.199 164.617 170.928 163.611 170.928C162.49 170.928 161.659 171.199 161.117 171.74C160.615 172.281 160.305 173.171 160.189 174.408H156.941C156.787 173.055 156.381 172.146 155.723 171.682C155.066 171.179 154.331 170.928 153.519 170.928C151.973 170.928 150.813 171.837 150.039 173.654C149.266 175.433 148.879 178.391 148.879 182.528C148.879 185.196 149.073 187.477 149.459 189.372C149.885 191.267 150.658 192.736 151.779 193.78C152.901 194.785 154.525 195.288 156.651 195.288C157.425 195.288 158.063 195.249 158.565 195.172C159.068 195.095 159.551 194.998 160.015 194.882L160.537 198.826C159.957 199.097 159.261 199.29 158.449 199.406C157.637 199.522 156.825 199.58 156.013 199.58ZM164.182 162.17C162.558 162.17 161.263 161.938 160.296 161.474C159.329 161.01 158.633 160.411 158.208 159.676C157.744 158.941 157.512 158.168 157.512 157.356C157.512 156.776 157.609 156.157 157.802 155.5C157.957 154.804 158.169 154.243 158.44 153.818L162.79 154.572C162.713 154.727 162.635 154.997 162.558 155.384C162.481 155.732 162.442 156.061 162.442 156.37C162.442 156.873 162.597 157.317 162.906 157.704C163.215 158.052 163.737 158.226 164.472 158.226H179.146V162.17H164.182ZM188.015 199.58C186.507 199.58 185.037 199.425 183.607 199.116C182.215 198.807 180.726 198.227 179.141 197.376L180.765 193.432C181.615 193.935 182.582 194.379 183.665 194.766C184.747 195.114 186.004 195.288 187.435 195.288C190.296 195.288 192.519 194.244 194.105 192.156C195.729 190.029 196.541 186.975 196.541 182.992C196.541 179.087 195.709 176.109 194.047 174.06C192.423 171.972 189.909 170.928 186.507 170.928C185.269 170.928 184.013 171.063 182.737 171.334C181.461 171.605 180.339 172.011 179.373 172.552V168.202C180.494 167.622 181.712 167.216 183.027 166.984C184.38 166.752 185.733 166.636 187.087 166.636C190.567 166.636 193.389 167.332 195.555 168.724C197.72 170.077 199.305 171.972 200.311 174.408C201.316 176.844 201.819 179.705 201.819 182.992C201.819 188.096 200.659 192.137 198.339 195.114C196.057 198.091 192.616 199.58 188.015 199.58ZM228.799 199V177.83C228.799 175.317 228.219 173.538 227.059 172.494C225.938 171.411 224.043 170.87 221.375 170.87C219.442 170.87 217.586 171.141 215.807 171.682C214.067 172.185 212.405 172.9 210.819 173.828V169.014C211.941 168.434 213.449 167.893 215.343 167.39C217.277 166.887 219.442 166.636 221.839 166.636C223.889 166.636 225.667 166.868 227.175 167.332C228.683 167.757 229.921 168.415 230.887 169.304C231.893 170.193 232.647 171.334 233.149 172.726C233.652 174.079 233.903 175.684 233.903 177.54V199H228.799ZM218.823 199.58C215.421 199.58 212.811 198.807 210.993 197.26C209.215 195.675 208.325 193.413 208.325 190.474C208.325 187.265 209.485 184.79 211.805 183.05C214.164 181.31 217.973 180.285 223.231 179.976L229.843 179.57V183.862L223.927 184.268C219.983 184.539 217.257 185.157 215.749 186.124C214.28 187.091 213.545 188.502 213.545 190.358C213.545 192.098 214.087 193.374 215.169 194.186C216.291 194.998 217.837 195.404 219.809 195.404C220.467 195.404 221.066 195.365 221.607 195.288C222.149 195.172 222.671 195.037 223.173 194.882L223.985 198.768C223.251 199.039 222.439 199.232 221.549 199.348C220.699 199.503 219.79 199.58 218.823 199.58ZM247.492 179.048C245.907 179.048 244.611 178.816 243.606 178.352C242.639 177.849 241.943 177.231 241.518 176.496C241.093 175.723 240.88 174.911 240.88 174.06C240.88 173.48 240.957 172.881 241.112 172.262C241.305 171.643 241.537 171.121 241.808 170.696L246.158 171.392C246.081 171.585 245.984 171.856 245.868 172.204C245.791 172.552 245.752 172.9 245.752 173.248C245.752 173.751 245.887 174.176 246.158 174.524C246.429 174.833 246.931 174.988 247.666 174.988H255.96V179.048H247.492ZM247.492 195.288C245.907 195.288 244.611 195.056 243.606 194.592C242.639 194.089 241.943 193.471 241.518 192.736C241.093 191.963 240.88 191.151 240.88 190.3C240.88 189.72 240.957 189.121 241.112 188.502C241.305 187.883 241.537 187.361 241.808 186.936L246.158 187.632C246.081 187.825 245.984 188.096 245.868 188.444C245.791 188.792 245.752 189.14 245.752 189.488C245.752 189.991 245.887 190.416 246.158 190.764C246.429 191.073 246.931 191.228 247.666 191.228H255.96V195.288H247.492ZM262.914 199V178.7C262.914 174.795 263.958 171.817 266.046 169.768C268.134 167.68 271.459 166.636 276.022 166.636C280.623 166.636 283.948 167.68 285.998 169.768C288.086 171.817 289.13 174.795 289.13 178.7V199H283.968V178.7C283.968 176.109 283.291 174.176 281.938 172.9C280.584 171.585 278.593 170.928 275.964 170.928C273.373 170.928 271.401 171.585 270.048 172.9C268.733 174.176 268.076 176.109 268.076 178.7V185.138L268.25 185.196C269.1 183.688 270.144 182.702 271.382 182.238C272.619 181.735 274.359 181.484 276.602 181.484H278.516V185.718H276.602C274.243 185.718 272.445 186.047 271.208 186.704C270.009 187.361 269.178 188.231 268.714 189.314C268.288 190.358 268.076 191.537 268.076 192.852V199H262.914ZM307.473 199.58C305.191 199.58 303.065 199.367 301.093 198.942C299.159 198.478 297.516 197.937 296.163 197.318L297.671 193.142C298.483 193.451 299.411 193.78 300.455 194.128C301.499 194.476 302.62 194.766 303.819 194.998C305.056 195.191 306.313 195.288 307.589 195.288C309.638 195.288 311.339 194.901 312.693 194.128C314.046 193.355 314.723 192.233 314.723 190.764C314.723 189.875 314.471 189.121 313.969 188.502C313.505 187.845 312.77 187.245 311.765 186.704C310.759 186.163 309.464 185.641 307.879 185.138C305.443 184.365 303.374 183.553 301.673 182.702C300.01 181.813 298.734 180.769 297.845 179.57C296.994 178.333 296.569 176.805 296.569 174.988C296.569 173.364 296.994 171.933 297.845 170.696C298.734 169.42 300.087 168.434 301.905 167.738C303.761 167.003 306.119 166.636 308.981 166.636C310.837 166.636 312.577 166.81 314.201 167.158C315.863 167.467 317.159 167.912 318.087 168.492V172.842C317.429 172.533 316.598 172.223 315.593 171.914C314.626 171.605 313.563 171.353 312.403 171.16C311.243 170.967 310.044 170.87 308.807 170.87C306.216 170.87 304.379 171.276 303.297 172.088C302.253 172.861 301.731 173.751 301.731 174.756C301.731 175.607 301.963 176.322 302.427 176.902C302.929 177.482 303.761 178.043 304.921 178.584C306.119 179.125 307.724 179.744 309.735 180.44C311.591 181.059 313.292 181.774 314.839 182.586C316.385 183.398 317.603 184.423 318.493 185.66C319.421 186.859 319.885 188.405 319.885 190.3C319.885 191.924 319.479 193.451 318.667 194.882C317.893 196.274 316.598 197.415 314.781 198.304C312.963 199.155 310.527 199.58 307.473 199.58Z" fill="#F08888"/>
</svg>
